<mxfile host="" modified="2020-05-29T14:41:19.768Z" agent="5.0 (Windows NT 10.0; Win64; x64) AppleWebKit/537.36 (KHTML, like Gecko) Code/1.45.1 Chrome/78.0.3904.130 Electron/7.2.4 Safari/537.36" etag="bSkfCnvsspJ2DdQYRHdC" version="13.1.3">
    <diagram id="6hGFLwfOUW9BJ-s0fimq" name="Page-1">
        <mxGraphModel dx="1162" dy="802" grid="1" gridSize="10" guides="1" tooltips="1" connect="1" arrows="1" fold="1" page="1" pageScale="1" pageWidth="850" pageHeight="1100" math="0" shadow="0">
            <root>
                <mxCell id="0"/>
                <mxCell id="1" parent="0"/>
                <mxCell id="z0lG-c1YenDPklHWy3sc-1" value="Capturing metrics" style="text;html=1;strokeColor=#000000;fillColor=none;align=center;verticalAlign=middle;whiteSpace=wrap;rounded=0;strokeWidth=2;" parent="1" vertex="1">
                    <mxGeometry x="40" y="40" width="130" height="40" as="geometry"/>
                </mxCell>
                <mxCell id="z0lG-c1YenDPklHWy3sc-2" value="Storing database" style="text;html=1;strokeColor=#000000;fillColor=none;align=center;verticalAlign=middle;whiteSpace=wrap;rounded=0;strokeWidth=2;" parent="1" vertex="1">
                    <mxGeometry x="230" y="40" width="130" height="40" as="geometry"/>
                </mxCell>
                <mxCell id="z0lG-c1YenDPklHWy3sc-3" value="Visualization" style="text;html=1;strokeColor=#000000;fillColor=none;align=center;verticalAlign=middle;whiteSpace=wrap;rounded=0;strokeWidth=2;" parent="1" vertex="1">
                    <mxGeometry x="425" y="40" width="130" height="40" as="geometry"/>
                </mxCell>
                <mxCell id="z0lG-c1YenDPklHWy3sc-14" style="edgeStyle=orthogonalEdgeStyle;rounded=0;orthogonalLoop=1;jettySize=auto;html=1;" parent="1" source="z0lG-c1YenDPklHWy3sc-4" target="z0lG-c1YenDPklHWy3sc-7" edge="1">
                    <mxGeometry relative="1" as="geometry"/>
                </mxCell>
                <mxCell id="z0lG-c1YenDPklHWy3sc-15" style="rounded=0;orthogonalLoop=1;jettySize=auto;html=1;entryX=0;entryY=0.41;entryDx=0;entryDy=0;entryPerimeter=0;exitX=0.997;exitY=0.5;exitDx=0;exitDy=0;exitPerimeter=0;" parent="1" source="z0lG-c1YenDPklHWy3sc-4" target="z0lG-c1YenDPklHWy3sc-9" edge="1">
                    <mxGeometry relative="1" as="geometry"/>
                </mxCell>
                <mxCell id="z0lG-c1YenDPklHWy3sc-16" style="edgeStyle=none;rounded=0;orthogonalLoop=1;jettySize=auto;html=1;entryX=0.013;entryY=0.45;entryDx=0;entryDy=0;entryPerimeter=0;" parent="1" target="z0lG-c1YenDPklHWy3sc-8" edge="1">
                    <mxGeometry relative="1" as="geometry">
                        <mxPoint x="131" y="122" as="sourcePoint"/>
                    </mxGeometry>
                </mxCell>
                <mxCell id="z0lG-c1YenDPklHWy3sc-4" value="Telegraf" style="text;html=1;align=center;verticalAlign=middle;resizable=0;points=[];autosize=1;" parent="1" vertex="1">
                    <mxGeometry x="70" y="110" width="60" height="20" as="geometry"/>
                </mxCell>
                <mxCell id="z0lG-c1YenDPklHWy3sc-17" style="edgeStyle=none;rounded=0;orthogonalLoop=1;jettySize=auto;html=1;entryX=-0.01;entryY=0.53;entryDx=0;entryDy=0;entryPerimeter=0;fillColor=#f5f5f5;strokeColor=#666666;" parent="1" source="z0lG-c1YenDPklHWy3sc-5" target="z0lG-c1YenDPklHWy3sc-9" edge="1">
                    <mxGeometry relative="1" as="geometry"/>
                </mxCell>
                <mxCell id="z0lG-c1YenDPklHWy3sc-5" value="Prometheus &lt;br&gt;(e.g. node exporter)" style="text;html=1;align=center;verticalAlign=middle;resizable=0;points=[];autosize=1;" parent="1" vertex="1">
                    <mxGeometry x="40" y="160" width="120" height="30" as="geometry"/>
                </mxCell>
                <mxCell id="z0lG-c1YenDPklHWy3sc-18" style="edgeStyle=none;rounded=0;orthogonalLoop=1;jettySize=auto;html=1;entryX=-0.007;entryY=0.55;entryDx=0;entryDy=0;entryPerimeter=0;" parent="1" source="z0lG-c1YenDPklHWy3sc-6" target="z0lG-c1YenDPklHWy3sc-8" edge="1">
                    <mxGeometry relative="1" as="geometry"/>
                </mxCell>
                <mxCell id="z0lG-c1YenDPklHWy3sc-19" style="edgeStyle=none;rounded=0;orthogonalLoop=1;jettySize=auto;html=1;entryX=-0.015;entryY=0.51;entryDx=0;entryDy=0;entryPerimeter=0;exitX=1.018;exitY=0.507;exitDx=0;exitDy=0;exitPerimeter=0;" parent="1" source="z0lG-c1YenDPklHWy3sc-6" target="z0lG-c1YenDPklHWy3sc-9" edge="1">
                    <mxGeometry relative="1" as="geometry"/>
                </mxCell>
                <mxCell id="z0lG-c1YenDPklHWy3sc-20" style="edgeStyle=none;rounded=0;orthogonalLoop=1;jettySize=auto;html=1;entryX=-0.007;entryY=0.54;entryDx=0;entryDy=0;entryPerimeter=0;exitX=1.01;exitY=0.493;exitDx=0;exitDy=0;exitPerimeter=0;" parent="1" source="z0lG-c1YenDPklHWy3sc-6" target="z0lG-c1YenDPklHWy3sc-7" edge="1">
                    <mxGeometry relative="1" as="geometry"/>
                </mxCell>
                <mxCell id="z0lG-c1YenDPklHWy3sc-6" value="other exporters&lt;br&gt;(e.g. collectd)" style="text;html=1;align=center;verticalAlign=middle;resizable=0;points=[];autosize=1;" parent="1" vertex="1">
                    <mxGeometry x="50" y="220" width="100" height="30" as="geometry"/>
                </mxCell>
                <mxCell id="z0lG-c1YenDPklHWy3sc-21" style="edgeStyle=none;rounded=0;orthogonalLoop=1;jettySize=auto;html=1;fillColor=#f5f5f5;strokeColor=#666666;" parent="1" source="z0lG-c1YenDPklHWy3sc-7" target="z0lG-c1YenDPklHWy3sc-10" edge="1">
                    <mxGeometry relative="1" as="geometry"/>
                </mxCell>
                <mxCell id="z0lG-c1YenDPklHWy3sc-22" style="edgeStyle=none;rounded=0;orthogonalLoop=1;jettySize=auto;html=1;entryX=0.01;entryY=0.552;entryDx=0;entryDy=0;entryPerimeter=0;" parent="1" target="z0lG-c1YenDPklHWy3sc-11" edge="1">
                    <mxGeometry relative="1" as="geometry">
                        <mxPoint x="326" y="119" as="sourcePoint"/>
                    </mxGeometry>
                </mxCell>
                <mxCell id="z0lG-c1YenDPklHWy3sc-7" value="InfluxDB" style="text;html=1;align=center;verticalAlign=middle;resizable=0;points=[];autosize=1;" parent="1" vertex="1">
                    <mxGeometry x="265" y="110" width="60" height="20" as="geometry"/>
                </mxCell>
                <mxCell id="z0lG-c1YenDPklHWy3sc-24" style="edgeStyle=none;rounded=0;orthogonalLoop=1;jettySize=auto;html=1;entryX=-0.045;entryY=0.576;entryDx=0;entryDy=0;entryPerimeter=0;exitX=1.014;exitY=0.433;exitDx=0;exitDy=0;exitPerimeter=0;" parent="1" source="z0lG-c1YenDPklHWy3sc-8" target="z0lG-c1YenDPklHWy3sc-11" edge="1">
                    <mxGeometry relative="1" as="geometry"/>
                </mxCell>
                <mxCell id="z0lG-c1YenDPklHWy3sc-8" value="Graphite" style="text;html=1;align=center;verticalAlign=middle;resizable=0;points=[];autosize=1;" parent="1" vertex="1">
                    <mxGeometry x="265" y="225" width="60" height="20" as="geometry"/>
                </mxCell>
                <mxCell id="z0lG-c1YenDPklHWy3sc-23" style="edgeStyle=none;rounded=0;orthogonalLoop=1;jettySize=auto;html=1;" parent="1" source="z0lG-c1YenDPklHWy3sc-9" edge="1">
                    <mxGeometry relative="1" as="geometry">
                        <mxPoint x="460" y="175" as="targetPoint"/>
                    </mxGeometry>
                </mxCell>
                <mxCell id="z0lG-c1YenDPklHWy3sc-9" value="Prometheus" style="text;html=1;align=center;verticalAlign=middle;resizable=0;points=[];autosize=1;" parent="1" vertex="1">
                    <mxGeometry x="255" y="165" width="80" height="20" as="geometry"/>
                </mxCell>
                <mxCell id="z0lG-c1YenDPklHWy3sc-10" value="Chronograf" style="text;html=1;align=center;verticalAlign=middle;resizable=0;points=[];autosize=1;" parent="1" vertex="1">
                    <mxGeometry x="450" y="110" width="80" height="20" as="geometry"/>
                </mxCell>
                <mxCell id="z0lG-c1YenDPklHWy3sc-11" value="Grafana" style="text;html=1;align=center;verticalAlign=middle;resizable=0;points=[];autosize=1;" parent="1" vertex="1">
                    <mxGeometry x="460" y="165" width="60" height="20" as="geometry"/>
                </mxCell>
            </root>
        </mxGraphModel>
    </diagram>
</mxfile>